# Blender v2.71 (sub 0) OBJ File: ''
# www.blender.org
mtllib falling_leaf.mtl
o Plane
v 0.044470 1.233998 1.160565
v 0.044470 -0.766002 1.160566
v 0.044470 1.233997 -0.839435
v 0.044470 -0.766003 -0.839434
v 0.034470 1.233998 1.160565
v 0.034470 -0.766002 1.160566
v 0.034470 1.233997 -0.839435
v 0.034470 -0.766003 -0.839434
vt -0.002676 0.002891
vt 0.997109 -0.002676
vt 1.002676 0.997108
vt 0.002892 1.002676
vn 1.000000 -0.000000 0.000000
vn -1.000000 0.000000 0.000000
vn 0.000000 1.000000 -0.000000
vn 0.000000 0.000000 1.000000
vn 0.000000 -1.000000 0.000000
vn 0.000000 -0.000000 -1.000000
usemtl None
s off
f 2/1/1 4/2/1 3/3/1
f 8/2/2 6/1/2 5/4/2
f 3/3/3 7/3/3 5/4/3
f 1/4/4 5/4/4 6/1/4
f 2/1/5 6/1/5 8/2/5
f 4/2/6 8/2/6 7/3/6
f 1/4/1 2/1/1 3/3/1
f 7/3/2 8/2/2 5/4/2
f 1/4/3 3/3/3 5/4/3
f 2/1/4 1/4/4 6/1/4
f 4/2/5 2/1/5 8/2/5
f 3/3/6 4/2/6 7/3/6
